# xmcd
#
# Track frame offsets:
#	150
#	14948
#	26974
#	40085
#	52164
#	68671
#	81873
#	93631
#	105700
#	117683
#	135301
#	147733
#	160294
#	172079
#	186184
#	199756
#	209991
#	223003
#	236353
#	249790
#	262543
#	277765
#	290851
#	299925
#
# Disc length: 4164 seconds
#
# Revision: 1
# Processed by: cddbd v1.5.2PL0 Copyright (c) Steve Scherf et al.
# Submitted via: EZCDAudioConverter 3.1.0.1
#
DISCID=88104218
DTITLE=Irany and Seu Conjunto - Boleros Em Surdina
DYEAR=1900
DGENRE=Blues
TTITLE0=Que Murmurem
TTITLE1=Nosostros
TTITLE2=Acercate Más
TTITLE3=Esperame Em El Cielo
TTITLE4=Bésame Mucho
TTITLE5=Final
TTITLE6=Sonando Contigo
TTITLE7=Tres Palabras
TTITLE8=Desesperadamente
TTITLE9=Vereda Tropical
TTITLE10=Angústia
TTITLE11=Abrazame Asi
TTITLE12=Tema De Lara
TTITLE13=Brigas
TTITLE14=Estranhos Ao Luar
TTITLE15=Eu Te Darei Bem Mais
TTITLE16=A Praia
TTITLE17=A Sombra Do Teu Sorriso
TTITLE18=Sombras Nada Mais
TTITLE19=Amor Quando É Amor
TTITLE20=Uma Casa Sobre O Mundo
TTITLE21=Dai-me Um Luar
TTITLE22=Amor (J'aime)
TTITLE23=Luar De Nápoles
EXTD=
EXTT0=
EXTT1=
EXTT2=
EXTT3=
EXTT4=
EXTT5=
EXTT6=
EXTT7=
EXTT8=
EXTT9=
EXTT10=
EXTT11=
EXTT12=
EXTT13=
EXTT14=
EXTT15=
EXTT16=
EXTT17=
EXTT18=
EXTT19=
EXTT20=
EXTT21=
EXTT22=
EXTT23=
PLAYORDER=
